<svg xmlns="http://www.w3.org/2000/svg" xmlns:xlink="http://www.w3.org/1999/xlink" width="1142.33" height="1251.32"><g transform="translate(0 0)"><path d="M1061.16 716.16c0 2.77 2.24 5 5 5h50c2.77 0 5-2.23 5-5v-210c0-2.76-2.23-5-5-5h-50c-2.76 0-5 2.24-5 5z" stroke="#666" stroke-width="2" fill="#f9d2de"/><use xlink:href="#a" transform="matrix(1,0,0,1,1066.164021164021,506.16402116402116) translate(25 111.6666666666666)"/><path d="M681.16 924.16c0 2.77 2.24 5 5 5h430c2.77 0 5-2.23 5-5v-230c0-2.76-2.23-5-5-5h-430c-2.76 0-5 2.24-5 5z" stroke="#666" stroke-width="2" fill="#f9d2de"/><use xlink:href="#a" transform="matrix(1,0,0,1,686.1640211640212,694.164021164021) translate(35 32.7777777777776)"/><path d="M681.16 524.16c0 2.77 2.24 5 5 5h430c2.77 0 5-2.23 5-5v-291c0-2.76-2.23-5-5-5h-430c-2.76 0-5 2.24-5 5z" stroke="#666" stroke-width="2" fill="#f9d2de"/><use xlink:href="#b" transform="matrix(1,0,0,1,686.1640211640212,233.16402116402116) translate(35 32.7777777777776)"/><use xlink:href="#c" transform="matrix(1,0,0,1,686.1640211640212,233.16402116402116) translate(85.06172839506124 32.7777777777776)"/><use xlink:href="#d" transform="matrix(1,0,0,1,686.1640211640212,233.16402116402116) translate(150.3086419753075 32.7777777777776)"/><use xlink:href="#e" transform="matrix(1,0,0,1,686.1640211640212,233.16402116402116) translate(229.19753086419558 32.7777777777776)"/><path d="M1061.16 703.16c0 2.77 2.24 5 5 5h50c2.77 0 5-2.23 5-5v-184c0-2.76-2.23-5-5-5h-50c-2.76 0-5 2.24-5 5z" fill="#f9d2de"/><use xlink:href="#a" transform="matrix(1,0,0,1,1066.164021164021,519.1640211640212) translate(25 98.6666666666666)"/><path d="M261.16 1224.16c0 2.77 2.24 5 5 5h370c2.77 0 5-2.23 5-5v-258c0-2.76-2.23-5-5-5h-370c-2.76 0-5 2.24-5 5z" stroke="#666" stroke-width="2" fill="#c7e8ac"/><use xlink:href="#f" transform="matrix(1,0,0,1,266.1640211640211,966.164021164021) translate(16.697530864199194 32.7777777777776)"/><use xlink:href="#g" transform="matrix(1,0,0,1,266.1640211640211,966.164021164021) translate(141.26543209876587 32.7777777777776)"/><use xlink:href="#h" transform="matrix(1,0,0,1,266.1640211640211,966.164021164021) translate(211.57407407407382 32.7777777777776)"/><use xlink:href="#e" transform="matrix(1,0,0,1,266.1640211640211,966.164021164021) translate(296.574074074073 32.7777777777776)"/><path d="M261.16 372.16c0 2.77 2.24 5 5 5h370c2.77 0 5-2.23 5-5v-346c0-2.76-2.23-5-5-5h-370c-2.76 0-5 2.24-5 5z" stroke="#666" stroke-width="2" fill="#c7e8ac"/><use xlink:href="#i" transform="matrix(1,0,0,1,266.1640211640211,26.164021164021165) translate(78.98148148148253 32.7777777777776)"/><use xlink:href="#j" transform="matrix(1,0,0,1,266.1640211640211,26.164021164021165) translate(149.29012345679047 32.7777777777776)"/><use xlink:href="#e" transform="matrix(1,0,0,1,266.1640211640211,26.164021164021165) translate(234.29012345678962 32.7777777777776)"/><path d="M261.16 924.16c0 2.77 2.24 5 5 5h370c2.77 0 5-2.23 5-5v-510c0-2.76-2.23-5-5-5h-370c-2.76 0-5 2.24-5 5z" stroke="#666" stroke-width="2" fill="#c1e4f7"/><use xlink:href="#k" transform="matrix(1,0,0,1,266.1640211640212,414.16402116402116) translate(92.06790123456882 32.7777777777776)"/><use xlink:href="#l" transform="matrix(1,0,0,1,266.1640211640212,414.16402116402116) translate(212.68518518518493 32.7777777777776)"/><path d="M21.16 924.16c0 2.77 2.24 5 5 5h190c2.77 0 5-2.23 5-5v-510c0-2.76-2.23-5-5-5h-190c-2.76 0-5 2.24-5 5z" stroke="#666" stroke-width="2" fill="#ffeca9"/><use xlink:href="#m" transform="matrix(1,0,0,1,26.164021164021165,414.16402116402116) translate(36.45061728395119 32.7777777777776)"/><use xlink:href="#n" transform="matrix(1,0,0,1,26.164021164021165,414.16402116402116) translate(37.77777777777834 59.444444444444)"/><path d="M301.16 98.47c0-2.76 2.24-5 5-5h290c2.77 0 5 2.24 5 5v47.37c0 2.76-2.23 5-5 5h-290c-2.76 0-5-2.24-5-5z" stroke="#666" stroke-width="2" fill="#fff"/><use xlink:href="#o" transform="matrix(1,0,0,1,301.1640211640211,93.46836899010813) translate(39.72722222222331 32.2777777777776)"/><path d="M451.16 150.84v37.2" stroke="#333" stroke-width="2" fill="none"/><path d="M451.16 188.03l-4.63-14.26h9.27z" fill="#333"/><path d="M452.22 188.03h-2.1l-4.97-15.26h12.03zm-4.3-13.26l3.24 10.03 3.26-10.03z" fill="#333"/><path d="M301.16 193.03c0-2.76 2.24-5 5-5h290c2.77 0 5 2.24 5 5v47.37c0 2.76-2.23 5-5 5h-290c-2.76 0-5-2.24-5-5z" stroke="#666" stroke-width="2" fill="#fff"/><use xlink:href="#p" transform="matrix(1,0,0,1,301.1640211640211,188.0335863814125) translate(15.869197530865515 32.2777777777776)"/><path d="M721.16 572.5c0-2.76 2.24-5 5-5h290c2.77 0 5 2.24 5 5v50.66c0 2.77-2.23 5-5 5h-290c-2.76 0-5-2.23-5-5z" stroke="#666" stroke-width="2" fill="#ffeca9"/><use xlink:href="#q" transform="matrix(1,0,0,1,721.1640211640212,567.4973544973545) translate(78.15314814814887 36.8402777777776)"/><path d="M721.16 436.83c0-2.76 2.24-5 5-5h290c2.77 0 5 2.24 5 5v50.67c0 2.76-2.23 5-5 5h-290c-2.76 0-5-2.24-5-5z" stroke="#666" stroke-width="2" fill="#fff"/><use xlink:href="#r" transform="matrix(1,0,0,1,721.1640211640212,431.8306878306877) translate(81.67166666666735 36.8402777777776)"/><path d="M721.16 734.16c0-2.76 2.24-5 5-5h290c2.77 0 5 2.24 5 5v50.67c0 2.76-2.23 5-5 5h-290c-2.76 0-5-2.24-5-5z" stroke="#666" stroke-width="2" fill="#fff"/><use xlink:href="#s" transform="matrix(1,0,0,1,721.1640211640212,729.1640211640212) translate(76.14697530864271 36.8402777777776)"/><path d="M721.16 336.83c0-2.76 2.24-5 5-5h290c2.77 0 5 2.24 5 5v50.67c0 2.76-2.23 5-5 5h-290c-2.76 0-5-2.24-5-5z" stroke="#666" stroke-width="2" fill="#fff"/><use xlink:href="#t" transform="matrix(1,0,0,1,721.1640211640212,331.8306878306877) translate(22.07290123456915 36.8402777777776)"/><path d="M301.16 1133.83c0-2.76 2.24-5 5-5h290c2.77 0 5 2.24 5 5v50.67c0 2.76-2.23 5-5 5h-290c-2.76 0-5-2.24-5-5z" stroke="#666" stroke-width="2" fill="#fff"/><use xlink:href="#u" transform="matrix(1,0,0,1,301.1640211640211,1128.8306878306878) translate(91.48648148148207 36.8402777777776)"/><path d="M301.16 1033.83c0-2.76 2.24-5 5-5h290c2.77 0 5 2.24 5 5v50.67c0 2.76-2.23 5-5 5h-290c-2.76 0-5-2.24-5-5z" stroke="#666" stroke-width="2" fill="#fff"/><use xlink:href="#v" transform="matrix(1,0,0,1,301.1640211640211,1028.8306878306878) translate(101.33216049382766 36.8402777777776)"/><path d="M301.16 287.6c0-2.76 2.24-5 5-5h290c2.77 0 5 2.24 5 5v47.37c0 2.76-2.23 5-5 5h-290c-2.76 0-5-2.24-5-5z" stroke="#666" stroke-width="2" fill="#fff"/><use xlink:href="#w" transform="matrix(1,0,0,1,301.1640211640211,282.59880377271685) translate(91.48648148148207 32.2777777777776)"/><path d="M451.16 245.4v37.2" stroke="#333" stroke-width="2" fill="none"/><path d="M451.16 282.6l-4.63-14.27h9.27z" fill="#333"/><path d="M452.22 282.6h-2.1l-4.97-15.27h12.03zm-4.3-13.27l3.24 10.03 3.26-10.03z" fill="#333"/><path d="M601.16 311.28h265c2.77 0 5 2.24 5 5v15.55" stroke="#333" stroke-width="2" fill="none"/><path d="M871.16 331.83l-4.63-14.27h9.27z" fill="#333"/><path d="M872.22 331.83h-2.1l-4.97-15.27h12.03zm-4.3-13.27l3.24 10.03 3.26-10.04z" fill="#333"/><path d="M451.16 1089.5v38.33" stroke="#333" stroke-width="2" fill="none"/><path d="M451.16 1127.83l-4.63-14.27h9.27z" fill="#333"/><path d="M451.9 1128.83h-1.46l-5.3-16.27h12.04zm-4-14.27l3.26 10.03 3.26-10.04z" fill="#333"/><path d="M721.16 833.16c0-2.76 2.24-5 5-5h290c2.77 0 5 2.24 5 5v50.67c0 2.76-2.23 5-5 5h-290c-2.76 0-5-2.24-5-5z" stroke="#666" stroke-width="2" fill="#fff"/><use xlink:href="#x" transform="matrix(1,0,0,1,721.1640211640212,828.1640211640213) translate(71.14697530864277 36.8402777777776)"/><path d="M301.16 494.16c0-2.76 2.24-5 5-5h290c2.77 0 5 2.24 5 5v50.67c0 2.76-2.23 5-5 5h-290c-2.76 0-5-2.24-5-5z" stroke="#666" stroke-width="2" fill="#fff"/><use xlink:href="#y" transform="matrix(1,0,0,1,301.1640211640211,489.1640211640212) translate(48.55438271605038 36.8402777777776)"/><path d="M301.16 633.33c0-2.76 2.24-5 5-5h290c2.77 0 5 2.24 5 5V684c0 2.76-2.23 5-5 5h-290c-2.76 0-5-2.24-5-5z" stroke="#666" stroke-width="2" fill="#fff"/><use xlink:href="#z" transform="matrix(1,0,0,1,301.1640211640211,628.3306878306877) translate(73.80129629629705 36.8402777777776)"/><path d="M301.16 833.83c0-2.76 2.24-5 5-5h290c2.77 0 5 2.24 5 5v50.67c0 2.76-2.23 5-5 5h-290c-2.76 0-5-2.24-5-5z" stroke="#666" stroke-width="2" fill="#fff"/><use xlink:href="#A" transform="matrix(1,0,0,1,301.1640211640211,828.8306878306878) translate(62.474135802469995 36.8402777777776)"/><path d="M871.16 392.5v38.33" stroke="#333" stroke-width="2" fill="none"/><path d="M871.16 430.83l-4.63-14.27h9.27z" fill="#333"/><path d="M871.9 431.83h-1.46l-5.3-16.27h12.04zm-4-14.27l3.26 10.03 3.26-10.04z" fill="#333"/><path d="M61.16 833.5c0-2.76 2.24-5 5-5h110c2.77 0 5 2.24 5 5v50.66c0 2.77-2.23 5-5 5h-110c-2.76 0-5-2.23-5-5z" stroke="#666" stroke-width="2" fill="#fff"/><use xlink:href="#B" transform="matrix(1,0,0,1,61.16402116402118,828.4973544973546) translate(28.554382716049695 36.8402777777776)"/><path d="M301.16 859.16h-59.83c-.1 0-.17-.07-.17-.16 0-.1-.07-.17-.16-.17h-59.84" stroke="#333" stroke-width="2" fill="none"/><path d="M195.43 863.47l-14.27-4.64 14.27-4.63z" fill="#333"/><path d="M196.43 864.84l-15.27-4.96v-2.1l15.27-4.96zm-12.03-6l10.03 3.25v-6.53z" fill="#333"/><path d="M61.16 555.16c0-2.76 2.24-5 5-5h110c2.77 0 5 2.24 5 5v50.67c0 2.76-2.23 5-5 5h-110c-2.76 0-5-2.24-5-5z" stroke="#666" stroke-width="2" fill="#fff"/><use xlink:href="#C" transform="matrix(1,0,0,1,61.16402116402118,550.1640211640212) translate(40.31364197530883 36.8402777777776)"/><path d="M121.16 610.83v42.83c0 2.77 2.24 5 5 5h175" stroke="#333" stroke-width="2" fill="none"/><path d="M301.16 658.66l-14.26 4.64v-9.27z" fill="#333"/><path d="M301.16 657.6v2.12l-15.26 4.96v-12.03zm-13.26 4.32l10.03-3.26-10.03-3.25z" fill="#333"/><path d="M301.16 519.5h-175c-2.76 0-5 2.24-5 5v25.66" stroke="#333" stroke-width="2" fill="none"/><path d="M121.16 550.16l-4.63-14.26h9.27z" fill="#333"/><path d="M122.22 550.16h-2.1l-4.97-15.26h12.03zm-4.3-13.26l3.24 10.03 3.26-10.03z" fill="#333"/><path d="M871.16 789.83v37.33" stroke="#333" stroke-width="2" fill="none"/><path d="M871.16 827.16l-4.63-14.26h9.27z" fill="#333"/><path d="M871.9 828.16h-1.46l-5.3-16.26h12.04zm-4-14.26l3.26 10.03 3.26-10.03z" fill="#333"/><path d="M721.16 462.16h-55c-2.76 0-5 2.24-5 5v47.34c0 2.76-2.23 5-5 5h-55" stroke="#333" stroke-width="2" fill="none"/><path d="M615.43 524.13l-14.27-4.63 14.27-4.64z" fill="#333"/><path d="M616.43 525.5l-15.27-4.95v-2.1l15.27-4.96zm-12.03-6l10.03 3.26v-6.52z" fill="#333"/><path d="M451.16 549.83v43c0 2.76 2.24 5 5 5h265" stroke="#333" stroke-width="2" fill="none"/><path d="M721.16 597.83l-14.26 4.64v-9.27z" fill="#333"/><path d="M721.16 596.78v2.1l-15.26 4.96v-12.02zm-13.26 4.3l10.03-3.25-10.03-3.26z" fill="#333"/><path d="M871.16 628.16v25.5c0 2.77-2.23 5-5 5h-265" stroke="#333" stroke-width="2" fill="none"/><path d="M615.43 663.3l-14.27-4.64 14.27-4.63z" fill="#333"/><path d="M616.43 664.68l-15.27-4.96v-2.1l15.27-4.97zm-12.03-6.02l10.03 3.26v-6.5z" fill="#333"/><path d="M451.16 689v63.83c0 2.76 2.24 5 5 5h264" stroke="#333" stroke-width="2" fill="none"/><path d="M720.16 757.83l-14.26 4.64v-9.27z" fill="#333"/><path d="M721.16 757.1v1.46l-16.26 5.28v-12.02zm-14.26 4l10.03-3.27-10.03-3.26z" fill="#333"/><path d="M451.16 889.5v138.33" stroke="#333" stroke-width="2" fill="none"/><path d="M451.16 1027.83l-4.63-14.27h9.27z" fill="#333"/><path d="M451.9 1028.83h-1.46l-5.3-16.27h12.04zm-4-14.27l3.26 10.03 3.26-10.04z" fill="#333"/><path d="M720.16 859.16h-118" stroke="#333" stroke-width="2" fill="none"/><path d="M721.16 860.16h-1v-2h1zM616.43 863.8l-14.26-4.64 14.26-4.63z" fill="#333"/><path d="M617.43 865.18l-16.27-5.3v-1.44l16.27-5.3zm-12.03-6.02l10.03 3.26v-6.5z" fill="#333"/><path d="M1021.16 462.16h65c2.77 0 5 2.24 5 5V754.5c0 2.76-2.23 5-5 5h-65" stroke="#333" stroke-width="2" fill="none"/><path d="M1035.43 764.13l-14.27-4.63 14.27-4.64z" fill="#333"/><path d="M1036.43 765.5l-15.27-4.95v-2.1l15.27-4.96zm-12.03-6l10.03 3.26v-6.52z" fill="#333"/><path d="M1021.16 462.16h65c2.77 0 5 2.24 5 5V853.5c0 2.76-2.23 5-5 5h-65" stroke="#333" stroke-width="2" fill="none"/><path d="M1035.43 863.13l-14.27-4.63 14.27-4.64z" fill="#333"/><path d="M1036.43 864.5l-15.27-4.95v-2.1l15.27-4.96zm-12.03-6l10.03 3.26v-6.52z" fill="#333"/><defs><path fill="#333" d="M136-208V0H84v-208H4v-40h212v40h-80" id="D"/><path fill="#333" d="M185-48c-13 30-37 53-82 52C43 2 14-33 14-96s30-98 90-98c62 0 83 45 84 108H66c0 31 8 55 39 56 18 0 30-7 34-22zm-45-69c5-46-57-63-70-21-2 6-4 13-4 21h74" id="E"/><path fill="#333" d="M137-138c1-29-70-34-71-4 15 46 118 7 119 86 1 83-164 76-172 9l43-7c4 19 20 25 44 25 33 8 57-30 24-41C81-84 22-81 20-136c-2-80 154-74 161-7" id="F"/><path fill="#333" d="M115-3C79 11 28 4 28-45v-112H4v-33h27l15-45h31v45h36v33H77v99c-1 23 16 31 38 25v30" id="G"/><g id="b"><use transform="matrix(0.06172839506172778,0,0,0.06172839506172778,0,0)" xlink:href="#D"/><use transform="matrix(0.06172839506172778,0,0,0.06172839506172778,11.851851851851734,0)" xlink:href="#E"/><use transform="matrix(0.06172839506172778,0,0,0.06172839506172778,24.19753086419729,0)" xlink:href="#F"/><use transform="matrix(0.06172839506172778,0,0,0.06172839506172778,36.543209876542846,0)" xlink:href="#G"/></g><path fill="#333" d="M85 4C-2 5 27-109 22-190h50c7 57-23 150 33 157 60-5 35-97 40-157h50l1 190h-47c-2-12 1-28-3-38-12 25-28 42-61 42" id="H"/><path fill="#333" d="M135-194c53 0 70 44 70 98 0 56-19 98-73 100-31 1-45-17-59-34 3 33 2 69 2 105H25l-1-265h48c2 10 0 23 3 31 11-24 29-35 60-35zM114-30c33 0 39-31 40-66 0-38-9-64-40-64-56 0-55 130 0 130" id="I"/><g id="c"><use transform="matrix(0.06172839506172778,0,0,0.06172839506172778,0,0)" xlink:href="#F"/><use transform="matrix(0.06172839506172778,0,0,0.06172839506172778,12.345679012345556,0)" xlink:href="#E"/><use transform="matrix(0.06172839506172778,0,0,0.06172839506172778,24.691358024691112,0)" xlink:href="#G"/><use transform="matrix(0.06172839506172778,0,0,0.06172839506172778,32.03703703703672,0)" xlink:href="#H"/><use transform="matrix(0.06172839506172778,0,0,0.06172839506172778,45.5555555555551,0)" xlink:href="#I"/></g><path fill="#333" d="M135-150c-39-12-60 13-60 57V0H25l-1-190h47c2 13-1 29 3 40 6-28 27-53 61-41v41" id="J"/><path fill="#333" d="M25 0v-261h50V0H25" id="K"/><path fill="#333" d="M133-34C117-15 103 5 69 4 32 3 11-16 11-54c-1-60 55-63 116-61 1-26-3-47-28-47-18 1-26 9-28 27l-52-2c7-38 36-58 82-57s74 22 75 68l1 82c-1 14 12 18 25 15v27c-30 8-71 5-69-32zm-48 3c29 0 43-24 42-57-32 0-66-3-65 30 0 17 8 27 23 27" id="L"/><path fill="#333" d="M88-194c31-1 46 15 58 34l-1-101h50l1 261h-48c-2-10 0-23-3-31C134-8 116 4 84 4 32 4 16-41 15-95c0-56 19-97 73-99zm17 164c33 0 40-30 41-66 1-37-9-64-41-64s-38 30-39 65c0 43 13 65 39 65" id="M"/><g id="d"><use transform="matrix(0.06172839506172778,0,0,0.06172839506172778,0,0)" xlink:href="#J"/><use transform="matrix(0.06172839506172778,0,0,0.06172839506172778,8.64197530864189,0)" xlink:href="#E"/><use transform="matrix(0.06172839506172778,0,0,0.06172839506172778,20.987654320987446,0)" xlink:href="#K"/><use transform="matrix(0.06172839506172778,0,0,0.06172839506172778,27.160493827160224,0)" xlink:href="#L"/><use transform="matrix(0.06172839506172778,0,0,0.06172839506172778,39.50617283950578,0)" xlink:href="#G"/><use transform="matrix(0.06172839506172778,0,0,0.06172839506172778,46.851851851851386,0)" xlink:href="#E"/><use transform="matrix(0.06172839506172778,0,0,0.06172839506172778,59.19753086419694,0)" xlink:href="#M"/></g><path fill="#333" d="M147 0L96-86 75-71V0H25v-261h50v150l67-79h53l-66 74L201 0h-54" id="N"/><g id="e"><use transform="matrix(0.06172839506172778,0,0,0.06172839506172778,0,0)" xlink:href="#G"/><use transform="matrix(0.06172839506172778,0,0,0.06172839506172778,7.345679012345606,0)" xlink:href="#L"/><use transform="matrix(0.06172839506172778,0,0,0.06172839506172778,19.691358024691162,0)" xlink:href="#F"/><use transform="matrix(0.06172839506172778,0,0,0.06172839506172778,32.03703703703672,0)" xlink:href="#N"/><use transform="matrix(0.06172839506172778,0,0,0.06172839506172778,44.382716049382275,0)" xlink:href="#F"/></g><path fill="#333" d="M24-248c120-7 223 5 221 122C244-46 201 0 124 0H24v-248zM76-40c74 7 117-18 117-86 0-67-45-88-117-82v168" id="O"/><path fill="#333" d="M25-224v-37h50v37H25zM25 0v-190h50V0H25" id="P"/><path fill="#333" d="M128 0H69L1-190h53L99-40l48-150h52" id="Q"/><path fill="#333" d="M135-194c52 0 70 43 70 98 0 56-19 99-73 100-30 1-46-15-58-35L72 0H24l1-261h50v104c11-23 29-37 60-37zM114-30c31 0 40-27 40-66 0-37-7-63-39-63s-41 28-41 65c0 36 8 64 40 64" id="R"/><g id="f"><use transform="matrix(0.06172839506172778,0,0,0.06172839506172778,0,0)" xlink:href="#O"/><use transform="matrix(0.06172839506172778,0,0,0.06172839506172778,15.987654320987495,0)" xlink:href="#E"/><use transform="matrix(0.06172839506172778,0,0,0.06172839506172778,28.33333333333305,0)" xlink:href="#K"/><use transform="matrix(0.06172839506172778,0,0,0.06172839506172778,34.50617283950583,0)" xlink:href="#P"/><use transform="matrix(0.06172839506172778,0,0,0.06172839506172778,40.67901234567861,0)" xlink:href="#Q"/><use transform="matrix(0.06172839506172778,0,0,0.06172839506172778,53.024691358024164,0)" xlink:href="#E"/><use transform="matrix(0.06172839506172778,0,0,0.06172839506172778,65.37037037036973,0)" xlink:href="#J"/><use transform="matrix(0.06172839506172778,0,0,0.06172839506172778,74.01234567901162,0)" xlink:href="#L"/><use transform="matrix(0.06172839506172778,0,0,0.06172839506172778,86.35802469135717,0)" xlink:href="#R"/><use transform="matrix(0.06172839506172778,0,0,0.06172839506172778,99.87654320987556,0)" xlink:href="#K"/><use transform="matrix(0.06172839506172778,0,0,0.06172839506172778,106.04938271604834,0)" xlink:href="#E"/></g><path fill="#333" d="M220-157c-53 9-28 100-34 157h-49v-107c1-27-5-49-29-50C55-147 81-57 75 0H25l-1-190h47c2 12-1 28 3 38 10-53 101-56 108 0 13-22 24-43 59-42 82 1 51 116 57 194h-49v-107c-1-25-5-48-29-50" id="S"/><path fill="#333" d="M195-6C206 82 75 100 31 46c-4-6-6-13-8-21l49-6c3 16 16 24 34 25 40 0 42-37 40-79-11 22-30 35-61 35-53 0-70-43-70-97 0-56 18-96 73-97 30 0 46 14 59 34l2-30h47zm-90-29c32 0 41-27 41-63 0-35-9-62-40-62-32 0-39 29-40 63 0 36 9 62 39 62" id="T"/><g id="g"><use transform="matrix(0.06172839506172778,0,0,0.06172839506172778,0,0)" xlink:href="#P"/><use transform="matrix(0.06172839506172778,0,0,0.06172839506172778,6.172839506172778,0)" xlink:href="#S"/><use transform="matrix(0.06172839506172778,0,0,0.06172839506172778,25.925925925925668,0)" xlink:href="#L"/><use transform="matrix(0.06172839506172778,0,0,0.06172839506172778,38.271604938271224,0)" xlink:href="#T"/><use transform="matrix(0.06172839506172778,0,0,0.06172839506172778,51.79012345678961,0)" xlink:href="#E"/></g><path fill="#333" d="M110-194c64 0 96 36 96 99 0 64-35 99-97 99-61 0-95-36-95-99 0-62 34-99 96-99zm-1 164c35 0 45-28 45-65 0-40-10-65-43-65-34 0-45 26-45 65 0 36 10 65 43 65" id="U"/><g id="h"><use transform="matrix(0.06172839506172778,0,0,0.06172839506172778,0,0)" xlink:href="#S"/><use transform="matrix(0.06172839506172778,0,0,0.06172839506172778,19.75308641975289,0)" xlink:href="#U"/><use transform="matrix(0.06172839506172778,0,0,0.06172839506172778,33.271604938271274,0)" xlink:href="#M"/><use transform="matrix(0.06172839506172778,0,0,0.06172839506172778,46.79012345678966,0)" xlink:href="#H"/><use transform="matrix(0.06172839506172778,0,0,0.06172839506172778,60.30864197530804,0)" xlink:href="#K"/><use transform="matrix(0.06172839506172778,0,0,0.06172839506172778,66.48148148148081,0)" xlink:href="#E"/></g><path fill="#333" d="M24 0v-248h52V0H24" id="V"/><g id="i"><use transform="matrix(0.06172839506172778,0,0,0.06172839506172778,0,0)" xlink:href="#V"/><use transform="matrix(0.06172839506172778,0,0,0.06172839506172778,6.172839506172778,0)" xlink:href="#S"/><use transform="matrix(0.06172839506172778,0,0,0.06172839506172778,25.925925925925668,0)" xlink:href="#L"/><use transform="matrix(0.06172839506172778,0,0,0.06172839506172778,38.271604938271224,0)" xlink:href="#T"/><use transform="matrix(0.06172839506172778,0,0,0.06172839506172778,51.79012345678961,0)" xlink:href="#E"/></g><g id="j"><use transform="matrix(0.06172839506172778,0,0,0.06172839506172778,0,0)" xlink:href="#S"/><use transform="matrix(0.06172839506172778,0,0,0.06172839506172778,19.75308641975289,0)" xlink:href="#U"/><use transform="matrix(0.06172839506172778,0,0,0.06172839506172778,33.271604938271274,0)" xlink:href="#M"/><use transform="matrix(0.06172839506172778,0,0,0.06172839506172778,46.79012345678966,0)" xlink:href="#H"/><use transform="matrix(0.06172839506172778,0,0,0.06172839506172778,60.30864197530804,0)" xlink:href="#K"/><use transform="matrix(0.06172839506172778,0,0,0.06172839506172778,66.48148148148081,0)" xlink:href="#E"/></g><path fill="#333" d="M135-194c87-1 58 113 63 194h-50c-7-57 23-157-34-157-59 0-34 97-39 157H25l-1-190h47c2 12-1 28 3 38 12-26 28-41 61-42" id="W"/><g id="k"><use transform="matrix(0.06172839506172778,0,0,0.06172839506172778,0,0)" xlink:href="#V"/><use transform="matrix(0.06172839506172778,0,0,0.06172839506172778,6.172839506172778,0)" xlink:href="#W"/><use transform="matrix(0.06172839506172778,0,0,0.06172839506172778,19.691358024691162,0)" xlink:href="#G"/><use transform="matrix(0.06172839506172778,0,0,0.06172839506172778,27.037037037036768,0)" xlink:href="#E"/><use transform="matrix(0.06172839506172778,0,0,0.06172839506172778,39.382716049382324,0)" xlink:href="#T"/><use transform="matrix(0.06172839506172778,0,0,0.06172839506172778,52.90123456790071,0)" xlink:href="#J"/><use transform="matrix(0.06172839506172778,0,0,0.06172839506172778,61.5432098765426,0)" xlink:href="#L"/><use transform="matrix(0.06172839506172778,0,0,0.06172839506172778,73.88888888888815,0)" xlink:href="#G"/><use transform="matrix(0.06172839506172778,0,0,0.06172839506172778,81.23456790123376,0)" xlink:href="#P"/><use transform="matrix(0.06172839506172778,0,0,0.06172839506172778,87.40740740740654,0)" xlink:href="#U"/><use transform="matrix(0.06172839506172778,0,0,0.06172839506172778,100.92592592592493,0)" xlink:href="#W"/></g><path fill="#333" d="M114-157C55-157 80-60 75 0H25v-261h50l-1 109c12-26 28-41 61-42 86-1 58 113 63 194h-50c-7-57 23-157-34-157" id="X"/><g id="l"><use transform="matrix(0.06172839506172778,0,0,0.06172839506172778,0,0)" xlink:href="#X"/><use transform="matrix(0.06172839506172778,0,0,0.06172839506172778,13.518518518518384,0)" xlink:href="#U"/><use transform="matrix(0.06172839506172778,0,0,0.06172839506172778,27.037037037036768,0)" xlink:href="#U"/><use transform="matrix(0.06172839506172778,0,0,0.06172839506172778,40.55555555555515,0)" xlink:href="#N"/><use transform="matrix(0.06172839506172778,0,0,0.06172839506172778,52.90123456790071,0)" xlink:href="#F"/></g><path fill="#333" d="M176-78C186 10 51 31 16-35c-5-9-9-19-11-32l52-8c4 21 12 37 35 38 23 0 32-16 32-40v-130H75v-41h101v170" id="Y"/><path fill="#333" d="M24-248c93 1 206-16 204 79-1 75-69 88-152 82V0H24v-248zm52 121c47 0 100 7 100-41 0-47-54-39-100-39v80" id="Z"/><g id="m"><use transform="matrix(0.06172839506172778,0,0,0.06172839506172778,0,0)" xlink:href="#Y"/><use transform="matrix(0.06172839506172778,0,0,0.06172839506172778,12.345679012345556,0)" xlink:href="#L"/><use transform="matrix(0.06172839506172778,0,0,0.06172839506172778,24.691358024691112,0)" xlink:href="#Q"/><use transform="matrix(0.06172839506172778,0,0,0.06172839506172778,37.03703703703667,0)" xlink:href="#L"/><use transform="matrix(0.06172839506172778,0,0,0.06172839506172778,49.382716049382225,0)" xlink:href="#Z"/><use transform="matrix(0.06172839506172778,0,0,0.06172839506172778,64.19753086419689,0)" xlink:href="#K"/><use transform="matrix(0.06172839506172778,0,0,0.06172839506172778,70.37037037036967,0)" xlink:href="#H"/><use transform="matrix(0.06172839506172778,0,0,0.06172839506172778,83.88888888888806,0)" xlink:href="#T"/><use transform="matrix(0.06172839506172778,0,0,0.06172839506172778,97.40740740740645,0)" xlink:href="#P"/><use transform="matrix(0.06172839506172778,0,0,0.06172839506172778,103.58024691357923,0)" xlink:href="#W"/></g><g id="n"><use transform="matrix(0.06172839506172778,0,0,0.06172839506172778,0,0)" xlink:href="#P"/><use transform="matrix(0.06172839506172778,0,0,0.06172839506172778,6.172839506172778,0)" xlink:href="#W"/><use transform="matrix(0.06172839506172778,0,0,0.06172839506172778,19.691358024691162,0)" xlink:href="#G"/><use transform="matrix(0.06172839506172778,0,0,0.06172839506172778,27.037037037036768,0)" xlink:href="#E"/><use transform="matrix(0.06172839506172778,0,0,0.06172839506172778,39.382716049382324,0)" xlink:href="#T"/><use transform="matrix(0.06172839506172778,0,0,0.06172839506172778,52.90123456790071,0)" xlink:href="#J"/><use transform="matrix(0.06172839506172778,0,0,0.06172839506172778,61.5432098765426,0)" xlink:href="#L"/><use transform="matrix(0.06172839506172778,0,0,0.06172839506172778,73.88888888888815,0)" xlink:href="#G"/><use transform="matrix(0.06172839506172778,0,0,0.06172839506172778,81.23456790123376,0)" xlink:href="#P"/><use transform="matrix(0.06172839506172778,0,0,0.06172839506172778,87.40740740740654,0)" xlink:href="#U"/><use transform="matrix(0.06172839506172778,0,0,0.06172839506172778,100.92592592592493,0)" xlink:href="#W"/></g><path fill="#333" d="M190-63c-7 42-38 67-86 67-59 0-84-38-90-98-12-110 154-137 174-36l-49 2c-2-19-15-32-35-32-30 0-35 28-38 64-6 74 65 87 74 30" id="aa"/><g id="o"><use transform="matrix(0.06172839506172778,0,0,0.06172839506172778,0,0)" xlink:href="#aa"/><use transform="matrix(0.06172839506172778,0,0,0.06172839506172778,12.345679012345556,0)" xlink:href="#U"/><use transform="matrix(0.06172839506172778,0,0,0.06172839506172778,25.86419753086394,0)" xlink:href="#K"/><use transform="matrix(0.06172839506172778,0,0,0.06172839506172778,32.03703703703672,0)" xlink:href="#K"/><use transform="matrix(0.06172839506172778,0,0,0.06172839506172778,38.209876543209496,0)" xlink:href="#E"/><use transform="matrix(0.06172839506172778,0,0,0.06172839506172778,50.55555555555505,0)" xlink:href="#aa"/><use transform="matrix(0.06172839506172778,0,0,0.06172839506172778,62.90123456790061,0)" xlink:href="#G"/><use transform="matrix(0.06172839506172778,0,0,0.06172839506172778,70.24691358024621,0)" xlink:href="#O"/><use transform="matrix(0.06172839506172778,0,0,0.06172839506172778,86.2345679012337,0)" xlink:href="#E"/><use transform="matrix(0.06172839506172778,0,0,0.06172839506172778,98.58024691357926,0)" xlink:href="#I"/><use transform="matrix(0.06172839506172778,0,0,0.06172839506172778,112.09876543209765,0)" xlink:href="#E"/><use transform="matrix(0.06172839506172778,0,0,0.06172839506172778,124.4444444444432,0)" xlink:href="#W"/><use transform="matrix(0.06172839506172778,0,0,0.06172839506172778,137.9629629629616,0)" xlink:href="#M"/><use transform="matrix(0.06172839506172778,0,0,0.06172839506172778,151.48148148148,0)" xlink:href="#E"/><use transform="matrix(0.06172839506172778,0,0,0.06172839506172778,163.82716049382555,0)" xlink:href="#W"/><use transform="matrix(0.06172839506172778,0,0,0.06172839506172778,177.34567901234394,0)" xlink:href="#aa"/><use transform="matrix(0.06172839506172778,0,0,0.06172839506172778,189.6913580246895,0)" xlink:href="#P"/><use transform="matrix(0.06172839506172778,0,0,0.06172839506172778,195.86419753086227,0)" xlink:href="#E"/><use transform="matrix(0.06172839506172778,0,0,0.06172839506172778,208.20987654320783,0)" xlink:href="#F"/></g><path fill="#333" d="M76-208v77h127v40H76V0H24v-248h183v40H76" id="ab"/><g id="p"><use transform="matrix(0.06172839506172778,0,0,0.06172839506172778,0,0)" xlink:href="#I"/><use transform="matrix(0.06172839506172778,0,0,0.06172839506172778,13.518518518518384,0)" xlink:href="#L"/><use transform="matrix(0.06172839506172778,0,0,0.06172839506172778,25.86419753086394,0)" xlink:href="#J"/><use transform="matrix(0.06172839506172778,0,0,0.06172839506172778,34.50617283950583,0)" xlink:href="#F"/><use transform="matrix(0.06172839506172778,0,0,0.06172839506172778,46.851851851851386,0)" xlink:href="#E"/><use transform="matrix(0.06172839506172778,0,0,0.06172839506172778,59.19753086419694,0)" xlink:href="#O"/><use transform="matrix(0.06172839506172778,0,0,0.06172839506172778,75.18518518518444,0)" xlink:href="#U"/><use transform="matrix(0.06172839506172778,0,0,0.06172839506172778,88.70370370370281,0)" xlink:href="#aa"/><use transform="matrix(0.06172839506172778,0,0,0.06172839506172778,101.04938271604837,0)" xlink:href="#N"/><use transform="matrix(0.06172839506172778,0,0,0.06172839506172778,113.39506172839393,0)" xlink:href="#E"/><use transform="matrix(0.06172839506172778,0,0,0.06172839506172778,125.74074074073948,0)" xlink:href="#J"/><use transform="matrix(0.06172839506172778,0,0,0.06172839506172778,134.38271604938137,0)" xlink:href="#ab"/><use transform="matrix(0.06172839506172778,0,0,0.06172839506172778,147.90123456789976,0)" xlink:href="#P"/><use transform="matrix(0.06172839506172778,0,0,0.06172839506172778,154.07407407407254,0)" xlink:href="#K"/><use transform="matrix(0.06172839506172778,0,0,0.06172839506172778,160.24691358024532,0)" xlink:href="#E"/><use transform="matrix(0.06172839506172778,0,0,0.06172839506172778,172.59259259259088,0)" xlink:href="#D"/><use transform="matrix(0.06172839506172778,0,0,0.06172839506172778,184.4444444444426,0)" xlink:href="#E"/><use transform="matrix(0.06172839506172778,0,0,0.06172839506172778,196.79012345678817,0)" xlink:href="#S"/><use transform="matrix(0.06172839506172778,0,0,0.06172839506172778,216.54320987654106,0)" xlink:href="#I"/><use transform="matrix(0.06172839506172778,0,0,0.06172839506172778,230.06172839505945,0)" xlink:href="#K"/><use transform="matrix(0.06172839506172778,0,0,0.06172839506172778,236.23456790123223,0)" xlink:href="#L"/><use transform="matrix(0.06172839506172778,0,0,0.06172839506172778,248.58024691357778,0)" xlink:href="#G"/><use transform="matrix(0.06172839506172778,0,0,0.06172839506172778,255.92592592592337,0)" xlink:href="#E"/></g><g id="q"><use transform="matrix(0.06172839506172778,0,0,0.06172839506172778,0,0)" xlink:href="#J"/><use transform="matrix(0.06172839506172778,0,0,0.06172839506172778,8.64197530864189,0)" xlink:href="#H"/><use transform="matrix(0.06172839506172778,0,0,0.06172839506172778,22.160493827160273,0)" xlink:href="#W"/><use transform="matrix(0.06172839506172778,0,0,0.06172839506172778,35.67901234567866,0)" xlink:href="#D"/><use transform="matrix(0.06172839506172778,0,0,0.06172839506172778,47.53086419753039,0)" xlink:href="#E"/><use transform="matrix(0.06172839506172778,0,0,0.06172839506172778,59.87654320987595,0)" xlink:href="#F"/><use transform="matrix(0.06172839506172778,0,0,0.06172839506172778,72.2222222222215,0)" xlink:href="#G"/><use transform="matrix(0.06172839506172778,0,0,0.06172839506172778,79.5679012345671,0)" xlink:href="#V"/><use transform="matrix(0.06172839506172778,0,0,0.06172839506172778,85.74074074073988,0)" xlink:href="#S"/><use transform="matrix(0.06172839506172778,0,0,0.06172839506172778,105.49382716049277,0)" xlink:href="#L"/><use transform="matrix(0.06172839506172778,0,0,0.06172839506172778,117.83950617283833,0)" xlink:href="#T"/><use transform="matrix(0.06172839506172778,0,0,0.06172839506172778,131.35802469135672,0)" xlink:href="#E"/></g><path fill="#333" d="M67-125c0 53 21 87 73 88 37 1 54-22 65-47l45 17C233-25 199 4 140 4 58 4 20-42 15-125 8-235 124-281 211-232c18 10 29 29 36 50l-46 12c-8-25-30-41-62-41-52 0-71 34-72 86" id="ac"/><g id="r"><use transform="matrix(0.06172839506172778,0,0,0.06172839506172778,0,0)" xlink:href="#J"/><use transform="matrix(0.06172839506172778,0,0,0.06172839506172778,8.64197530864189,0)" xlink:href="#H"/><use transform="matrix(0.06172839506172778,0,0,0.06172839506172778,22.160493827160273,0)" xlink:href="#W"/><use transform="matrix(0.06172839506172778,0,0,0.06172839506172778,35.67901234567866,0)" xlink:href="#ac"/><use transform="matrix(0.06172839506172778,0,0,0.06172839506172778,51.66666666666615,0)" xlink:href="#U"/><use transform="matrix(0.06172839506172778,0,0,0.06172839506172778,65.18518518518454,0)" xlink:href="#S"/><use transform="matrix(0.06172839506172778,0,0,0.06172839506172778,84.93827160493743,0)" xlink:href="#I"/><use transform="matrix(0.06172839506172778,0,0,0.06172839506172778,98.45679012345582,0)" xlink:href="#U"/><use transform="matrix(0.06172839506172778,0,0,0.06172839506172778,111.97530864197421,0)" xlink:href="#F"/><use transform="matrix(0.06172839506172778,0,0,0.06172839506172778,124.32098765431977,0)" xlink:href="#E"/></g><g id="s"><use transform="matrix(0.06172839506172778,0,0,0.06172839506172778,0,0)" xlink:href="#F"/><use transform="matrix(0.06172839506172778,0,0,0.06172839506172778,12.345679012345556,0)" xlink:href="#G"/><use transform="matrix(0.06172839506172778,0,0,0.06172839506172778,19.691358024691162,0)" xlink:href="#U"/><use transform="matrix(0.06172839506172778,0,0,0.06172839506172778,33.209876543209546,0)" xlink:href="#I"/><use transform="matrix(0.06172839506172778,0,0,0.06172839506172778,46.72839506172793,0)" xlink:href="#ac"/><use transform="matrix(0.06172839506172778,0,0,0.06172839506172778,62.716049382715426,0)" xlink:href="#U"/><use transform="matrix(0.06172839506172778,0,0,0.06172839506172778,76.23456790123382,0)" xlink:href="#S"/><use transform="matrix(0.06172839506172778,0,0,0.06172839506172778,95.9876543209867,0)" xlink:href="#I"/><use transform="matrix(0.06172839506172778,0,0,0.06172839506172778,109.5061728395051,0)" xlink:href="#U"/><use transform="matrix(0.06172839506172778,0,0,0.06172839506172778,123.02469135802349,0)" xlink:href="#F"/><use transform="matrix(0.06172839506172778,0,0,0.06172839506172778,135.37037037036905,0)" xlink:href="#E"/></g><g id="t"><use transform="matrix(0.06172839506172778,0,0,0.06172839506172778,0,0)" xlink:href="#I"/><use transform="matrix(0.06172839506172778,0,0,0.06172839506172778,13.518518518518384,0)" xlink:href="#L"/><use transform="matrix(0.06172839506172778,0,0,0.06172839506172778,25.86419753086394,0)" xlink:href="#J"/><use transform="matrix(0.06172839506172778,0,0,0.06172839506172778,34.50617283950583,0)" xlink:href="#F"/><use transform="matrix(0.06172839506172778,0,0,0.06172839506172778,46.851851851851386,0)" xlink:href="#E"/><use transform="matrix(0.06172839506172778,0,0,0.06172839506172778,59.19753086419694,0)" xlink:href="#ac"/><use transform="matrix(0.06172839506172778,0,0,0.06172839506172778,75.18518518518444,0)" xlink:href="#U"/><use transform="matrix(0.06172839506172778,0,0,0.06172839506172778,88.70370370370281,0)" xlink:href="#S"/><use transform="matrix(0.06172839506172778,0,0,0.06172839506172778,108.4567901234557,0)" xlink:href="#I"/><use transform="matrix(0.06172839506172778,0,0,0.06172839506172778,121.9753086419741,0)" xlink:href="#U"/><use transform="matrix(0.06172839506172778,0,0,0.06172839506172778,135.4938271604925,0)" xlink:href="#F"/><use transform="matrix(0.06172839506172778,0,0,0.06172839506172778,147.83950617283804,0)" xlink:href="#E"/><use transform="matrix(0.06172839506172778,0,0,0.06172839506172778,160.1851851851836,0)" xlink:href="#D"/><use transform="matrix(0.06172839506172778,0,0,0.06172839506172778,172.03703703703533,0)" xlink:href="#E"/><use transform="matrix(0.06172839506172778,0,0,0.06172839506172778,184.3827160493809,0)" xlink:href="#S"/><use transform="matrix(0.06172839506172778,0,0,0.06172839506172778,204.13580246913378,0)" xlink:href="#I"/><use transform="matrix(0.06172839506172778,0,0,0.06172839506172778,217.65432098765217,0)" xlink:href="#K"/><use transform="matrix(0.06172839506172778,0,0,0.06172839506172778,223.82716049382495,0)" xlink:href="#L"/><use transform="matrix(0.06172839506172778,0,0,0.06172839506172778,236.1728395061705,0)" xlink:href="#G"/><use transform="matrix(0.06172839506172778,0,0,0.06172839506172778,243.51851851851612,0)" xlink:href="#E"/></g><g id="u"><use transform="matrix(0.06172839506172778,0,0,0.06172839506172778,0,0)" xlink:href="#I"/><use transform="matrix(0.06172839506172778,0,0,0.06172839506172778,13.518518518518384,0)" xlink:href="#H"/><use transform="matrix(0.06172839506172778,0,0,0.06172839506172778,27.037037037036768,0)" xlink:href="#F"/><use transform="matrix(0.06172839506172778,0,0,0.06172839506172778,39.382716049382324,0)" xlink:href="#X"/><use transform="matrix(0.06172839506172778,0,0,0.06172839506172778,52.90123456790071,0)" xlink:href="#V"/><use transform="matrix(0.06172839506172778,0,0,0.06172839506172778,59.074074074073486,0)" xlink:href="#S"/><use transform="matrix(0.06172839506172778,0,0,0.06172839506172778,78.82716049382637,0)" xlink:href="#L"/><use transform="matrix(0.06172839506172778,0,0,0.06172839506172778,91.17283950617193,0)" xlink:href="#T"/><use transform="matrix(0.06172839506172778,0,0,0.06172839506172778,104.69135802469032,0)" xlink:href="#E"/></g><g id="v"><use transform="matrix(0.06172839506172778,0,0,0.06172839506172778,0,0)" xlink:href="#G"/><use transform="matrix(0.06172839506172778,0,0,0.06172839506172778,7.345679012345606,0)" xlink:href="#L"/><use transform="matrix(0.06172839506172778,0,0,0.06172839506172778,19.691358024691162,0)" xlink:href="#T"/><use transform="matrix(0.06172839506172778,0,0,0.06172839506172778,33.209876543209546,0)" xlink:href="#V"/><use transform="matrix(0.06172839506172778,0,0,0.06172839506172778,39.382716049382324,0)" xlink:href="#S"/><use transform="matrix(0.06172839506172778,0,0,0.06172839506172778,59.135802469135214,0)" xlink:href="#L"/><use transform="matrix(0.06172839506172778,0,0,0.06172839506172778,71.48148148148077,0)" xlink:href="#T"/><use transform="matrix(0.06172839506172778,0,0,0.06172839506172778,84.99999999999915,0)" xlink:href="#E"/></g><g id="w"><use transform="matrix(0.06172839506172778,0,0,0.06172839506172778,0,0)" xlink:href="#R"/><use transform="matrix(0.06172839506172778,0,0,0.06172839506172778,13.518518518518384,0)" xlink:href="#H"/><use transform="matrix(0.06172839506172778,0,0,0.06172839506172778,27.037037037036768,0)" xlink:href="#P"/><use transform="matrix(0.06172839506172778,0,0,0.06172839506172778,33.209876543209546,0)" xlink:href="#K"/><use transform="matrix(0.06172839506172778,0,0,0.06172839506172778,39.382716049382324,0)" xlink:href="#M"/><use transform="matrix(0.06172839506172778,0,0,0.06172839506172778,52.90123456790071,0)" xlink:href="#V"/><use transform="matrix(0.06172839506172778,0,0,0.06172839506172778,59.074074074073486,0)" xlink:href="#S"/><use transform="matrix(0.06172839506172778,0,0,0.06172839506172778,78.82716049382637,0)" xlink:href="#L"/><use transform="matrix(0.06172839506172778,0,0,0.06172839506172778,91.17283950617193,0)" xlink:href="#T"/><use transform="matrix(0.06172839506172778,0,0,0.06172839506172778,104.69135802469032,0)" xlink:href="#E"/></g><g id="x"><use transform="matrix(0.06172839506172778,0,0,0.06172839506172778,0,0)" xlink:href="#aa"/><use transform="matrix(0.06172839506172778,0,0,0.06172839506172778,12.345679012345556,0)" xlink:href="#K"/><use transform="matrix(0.06172839506172778,0,0,0.06172839506172778,18.518518518518334,0)" xlink:href="#E"/><use transform="matrix(0.06172839506172778,0,0,0.06172839506172778,30.86419753086389,0)" xlink:href="#L"/><use transform="matrix(0.06172839506172778,0,0,0.06172839506172778,43.20987654320945,0)" xlink:href="#W"/><use transform="matrix(0.06172839506172778,0,0,0.06172839506172778,56.72839506172783,0)" xlink:href="#ac"/><use transform="matrix(0.06172839506172778,0,0,0.06172839506172778,72.71604938271533,0)" xlink:href="#U"/><use transform="matrix(0.06172839506172778,0,0,0.06172839506172778,86.2345679012337,0)" xlink:href="#S"/><use transform="matrix(0.06172839506172778,0,0,0.06172839506172778,105.98765432098659,0)" xlink:href="#I"/><use transform="matrix(0.06172839506172778,0,0,0.06172839506172778,119.50617283950498,0)" xlink:href="#U"/><use transform="matrix(0.06172839506172778,0,0,0.06172839506172778,133.02469135802338,0)" xlink:href="#F"/><use transform="matrix(0.06172839506172778,0,0,0.06172839506172778,145.37037037036893,0)" xlink:href="#E"/></g><path fill="#333" d="M231 0h-52l-39-155L100 0H48L-1-190h46L77-45c9-52 24-97 36-145h53l37 145 32-145h46" id="ad"/><path fill="#333" d="M169-182c-1-43-94-46-97-3 18 66 151 10 154 114 3 95-165 93-204 36-6-8-10-19-12-30l50-8c3 46 112 56 116 5-17-69-150-10-154-114-4-87 153-88 188-35 5 8 8 18 10 28" id="ae"/><g id="y"><use transform="matrix(0.06172839506172778,0,0,0.06172839506172778,0,0)" xlink:href="#F"/><use transform="matrix(0.06172839506172778,0,0,0.06172839506172778,12.345679012345556,0)" xlink:href="#G"/><use transform="matrix(0.06172839506172778,0,0,0.06172839506172778,19.691358024691162,0)" xlink:href="#L"/><use transform="matrix(0.06172839506172778,0,0,0.06172839506172778,32.03703703703672,0)" xlink:href="#aa"/><use transform="matrix(0.06172839506172778,0,0,0.06172839506172778,44.382716049382275,0)" xlink:href="#N"/><use transform="matrix(0.06172839506172778,0,0,0.06172839506172778,56.72839506172783,0)" xlink:href="#ad"/><use transform="matrix(0.06172839506172778,0,0,0.06172839506172778,74.01234567901162,0)" xlink:href="#U"/><use transform="matrix(0.06172839506172778,0,0,0.06172839506172778,87.53086419753001,0)" xlink:href="#J"/><use transform="matrix(0.06172839506172778,0,0,0.06172839506172778,96.1728395061719,0)" xlink:href="#N"/><use transform="matrix(0.06172839506172778,0,0,0.06172839506172778,108.51851851851745,0)" xlink:href="#D"/><use transform="matrix(0.06172839506172778,0,0,0.06172839506172778,120.37037037036919,0)" xlink:href="#E"/><use transform="matrix(0.06172839506172778,0,0,0.06172839506172778,132.71604938271474,0)" xlink:href="#F"/><use transform="matrix(0.06172839506172778,0,0,0.06172839506172778,145.0617283950603,0)" xlink:href="#G"/><use transform="matrix(0.06172839506172778,0,0,0.06172839506172778,152.4074074074059,0)" xlink:href="#ae"/><use transform="matrix(0.06172839506172778,0,0,0.06172839506172778,167.22222222222058,0)" xlink:href="#G"/><use transform="matrix(0.06172839506172778,0,0,0.06172839506172778,174.5679012345662,0)" xlink:href="#L"/><use transform="matrix(0.06172839506172778,0,0,0.06172839506172778,186.91358024691175,0)" xlink:href="#J"/><use transform="matrix(0.06172839506172778,0,0,0.06172839506172778,195.55555555555364,0)" xlink:href="#G"/></g><g id="z"><use transform="matrix(0.06172839506172778,0,0,0.06172839506172778,0,0)" xlink:href="#F"/><use transform="matrix(0.06172839506172778,0,0,0.06172839506172778,12.345679012345556,0)" xlink:href="#G"/><use transform="matrix(0.06172839506172778,0,0,0.06172839506172778,19.691358024691162,0)" xlink:href="#L"/><use transform="matrix(0.06172839506172778,0,0,0.06172839506172778,32.03703703703672,0)" xlink:href="#aa"/><use transform="matrix(0.06172839506172778,0,0,0.06172839506172778,44.382716049382275,0)" xlink:href="#N"/><use transform="matrix(0.06172839506172778,0,0,0.06172839506172778,56.72839506172783,0)" xlink:href="#ad"/><use transform="matrix(0.06172839506172778,0,0,0.06172839506172778,74.01234567901162,0)" xlink:href="#U"/><use transform="matrix(0.06172839506172778,0,0,0.06172839506172778,87.53086419753001,0)" xlink:href="#J"/><use transform="matrix(0.06172839506172778,0,0,0.06172839506172778,96.1728395061719,0)" xlink:href="#N"/><use transform="matrix(0.06172839506172778,0,0,0.06172839506172778,108.51851851851745,0)" xlink:href="#D"/><use transform="matrix(0.06172839506172778,0,0,0.06172839506172778,120.37037037036919,0)" xlink:href="#E"/><use transform="matrix(0.06172839506172778,0,0,0.06172839506172778,132.71604938271474,0)" xlink:href="#F"/><use transform="matrix(0.06172839506172778,0,0,0.06172839506172778,145.0617283950603,0)" xlink:href="#G"/></g><g id="A"><use transform="matrix(0.06172839506172778,0,0,0.06172839506172778,0,0)" xlink:href="#F"/><use transform="matrix(0.06172839506172778,0,0,0.06172839506172778,12.345679012345556,0)" xlink:href="#G"/><use transform="matrix(0.06172839506172778,0,0,0.06172839506172778,19.691358024691162,0)" xlink:href="#L"/><use transform="matrix(0.06172839506172778,0,0,0.06172839506172778,32.03703703703672,0)" xlink:href="#aa"/><use transform="matrix(0.06172839506172778,0,0,0.06172839506172778,44.382716049382275,0)" xlink:href="#N"/><use transform="matrix(0.06172839506172778,0,0,0.06172839506172778,56.72839506172783,0)" xlink:href="#ad"/><use transform="matrix(0.06172839506172778,0,0,0.06172839506172778,74.01234567901162,0)" xlink:href="#U"/><use transform="matrix(0.06172839506172778,0,0,0.06172839506172778,87.53086419753001,0)" xlink:href="#J"/><use transform="matrix(0.06172839506172778,0,0,0.06172839506172778,96.1728395061719,0)" xlink:href="#N"/><use transform="matrix(0.06172839506172778,0,0,0.06172839506172778,108.51851851851745,0)" xlink:href="#ac"/><use transform="matrix(0.06172839506172778,0,0,0.06172839506172778,124.50617283950496,0)" xlink:href="#X"/><use transform="matrix(0.06172839506172778,0,0,0.06172839506172778,138.02469135802335,0)" xlink:href="#E"/><use transform="matrix(0.06172839506172778,0,0,0.06172839506172778,150.3703703703689,0)" xlink:href="#aa"/><use transform="matrix(0.06172839506172778,0,0,0.06172839506172778,162.71604938271446,0)" xlink:href="#N"/></g><g id="B"><use transform="matrix(0.06172839506172778,0,0,0.06172839506172778,0,0)" xlink:href="#aa"/><use transform="matrix(0.06172839506172778,0,0,0.06172839506172778,12.345679012345556,0)" xlink:href="#X"/><use transform="matrix(0.06172839506172778,0,0,0.06172839506172778,25.86419753086394,0)" xlink:href="#E"/><use transform="matrix(0.06172839506172778,0,0,0.06172839506172778,38.209876543209496,0)" xlink:href="#aa"/><use transform="matrix(0.06172839506172778,0,0,0.06172839506172778,50.55555555555505,0)" xlink:href="#N"/></g><g id="C"><use transform="matrix(0.06172839506172778,0,0,0.06172839506172778,0,0)" xlink:href="#G"/><use transform="matrix(0.06172839506172778,0,0,0.06172839506172778,7.345679012345606,0)" xlink:href="#E"/><use transform="matrix(0.06172839506172778,0,0,0.06172839506172778,19.691358024691162,0)" xlink:href="#F"/><use transform="matrix(0.06172839506172778,0,0,0.06172839506172778,32.03703703703672,0)" xlink:href="#G"/></g></defs></g></svg>